<svg width="24" height="24" viewBox="0 0 24 24" fill="none" xmlns="http://www.w3.org/2000/svg">
<path d="M18.0404 15.3738L19.5702 16.9035C19.8076 17.1409 19.8076 17.5258 19.5702 17.7632C18.2867 19.0467 16.2548 19.1911 14.8027 18.102L14.0642 17.5481C12.695 16.5213 11.4787 15.305 10.4519 13.9358L9.898 13.1973C8.80894 11.7453 8.95334 9.71332 10.2368 8.42985C10.4742 8.19245 10.8591 8.19245 11.0965 8.42985L12.6262 9.95956C13.0168 10.3501 13.0168 10.9832 12.6262 11.3738L12.1812 11.8188C12.073 11.927 12.0462 12.0923 12.1146 12.2292C12.9057 13.8114 14.1886 15.0943 15.7708 15.8854C15.9077 15.9538 16.073 15.927 16.1812 15.8188L16.6262 15.3738C17.0168 14.9832 17.6499 14.9833 18.0404 15.3738Z" stroke="#2C2C2C" stroke-width="0.8"/>
</svg>
